# xmcd CD database file
#
# Track frame offsets:
#	150
#	23058
#	37574
#	54662
#	79819
#	102358
#	131185
#	152234
#	177798
#	204134
#	221535
#	242420
#	264695
#	284887
#	309416
#
# Disc length: 4451 seconds
#
# Revision: 2
# Processed by: cddbd v1.5.1PL0 Copyright (c) Steve Scherf et al.
# Submitted via: CDex 1.50
#
DISCID=cc11610f
DTITLE=Vari - Chill Out Cafè vol 8 - CD1
DYEAR=1900
DGENRE=
TTITLE0=Arcoiris - Volta pro mar
TTITLE1=Ohm Guru - Dolphins
TTITLE2=Kaleidoscopio - Temp que valer (electro bossa mix)
TTITLE3=Soul Quality Quartet - I'm not here
TTITLE4=Chiaroscuro ft Noemi - Sale la luna
TTITLE5=Leonardo Caimi - Camaròn
TTITLE6=United Peace Voices - Ohm ha hum
TTITLE7=Shiny - Refuse
TTITLE8=Pluton kids - Bar Zilla
TTITLE9=Future Loop Foundation - I love her more in summertime
TTITLE10=Soul Bossa Trio - Rain flow
TTITLE11=Lockhart - My friends the whales
TTITLE12=Stigmato Inc - My deep and magical ambient (guitar version)
TTITLE13=Zeb - The seed
TTITLE14=In Da Gladiaz - Shakti
EXTD=
EXTT0=
EXTT1=
EXTT2=
EXTT3=
EXTT4=
EXTT5=
EXTT6=
EXTT7=
EXTT8=
EXTT9=
EXTT10=
EXTT11=
EXTT12=
EXTT13=
EXTT14=
PLAYORDER=
